<svg version="1.1" viewBox="0.0 0.0 686.1679790026246 523.7375328083989" fill="none" stroke="none" stroke-linecap="square" stroke-miterlimit="10" xmlns:xlink="http://www.w3.org/1999/xlink" xmlns="http://www.w3.org/2000/svg"><clipPath id="p.0"><path d="m0 0l686.16797 0l0 523.73755l-686.16797 0l0 -523.73755z" clip-rule="nonzero"/></clipPath><g clip-path="url(#p.0)"><path fill="#000000" fill-opacity="0.0" d="m0 0l686.16797 0l0 523.73755l-686.16797 0z" fill-rule="evenodd"/><path fill="#d9f9f2" d="m182.80052 98.770096l0 0c0 -29.507957 23.920929 -53.42889 53.428894 -53.42889l213.70915 0l0 0c14.170227 0 27.76007 5.629101 37.779938 15.64896c10.019836 10.019859 15.648956 23.60971 15.648956 37.77993l0 213.70915c0 29.507965 -23.920929 53.428894 -53.428894 53.428894l-213.70915 0c-29.507965 0 -53.428894 -23.920929 -53.428894 -53.428894z" fill-rule="evenodd"/><path fill="#ffc490" d="m201.33333 91.92388l0 0c0 -15.629219 12.669998 -28.29921 28.299225 -28.29921l0 0c7.505417 0 14.70343 2.981514 20.01056 8.2886505c5.307129 5.307129 8.2886505 12.505142 8.2886505 20.01056l0 0c0 15.629227 -12.669998 28.299217 -28.29921 28.299217l0 0c-15.629227 0 -28.299225 -12.669991 -28.299225 -28.299217z" fill-rule="evenodd"/><path fill="#b7d2ff" d="m276.7139 91.92388l0 0c0 -15.629219 12.670013 -28.29921 28.299225 -28.29921l0 0c7.505432 0 14.70343 2.981514 20.01056 8.2886505c5.307129 5.307129 8.288666 12.505142 8.288666 20.01056l0 0c0 15.629227 -12.670013 28.299217 -28.299225 28.299217l0 0c-15.629211 0 -28.299225 -12.669991 -28.299225 -28.299217z" fill-rule="evenodd"/><path fill="#ff7a7a" d="m352.09448 91.92388l0 0c0 -15.629219 12.669983 -28.29921 28.299225 -28.29921l0 0c7.5054016 0 14.70343 2.981514 20.01056 8.2886505c5.307129 5.307129 8.288635 12.505142 8.288635 20.01056l0 0c0 15.629227 -12.669983 28.299217 -28.299194 28.299217l0 0c-15.629242 0 -28.299225 -12.669991 -28.299225 -28.299217z" fill-rule="evenodd"/><path fill="#ffb1fb" d="m427.47507 91.92388l0 0c0 -15.629219 12.669983 -28.29921 28.299225 -28.29921l0 0c7.5054016 0 14.70343 2.981514 20.01056 8.2886505c5.307129 5.307129 8.288635 12.505142 8.288635 20.01056l0 0c0 15.629227 -12.669983 28.299217 -28.299194 28.299217l0 0c-15.629242 0 -28.299225 -12.669991 -28.299225 -28.299217z" fill-rule="evenodd"/><path fill="#c4ff8c" d="m427.47507 167.05511l0 0c0 -15.629227 12.669983 -28.29921 28.299225 -28.29921l0 0c7.5054016 0 14.70343 2.9815216 20.01056 8.2886505c5.307129 5.307129 8.288635 12.505142 8.288635 20.01056l0 0c0 15.629227 -12.669983 28.29921 -28.299194 28.29921l0 0c-15.629242 0 -28.299225 -12.669983 -28.299225 -28.29921z" fill-rule="evenodd"/><path fill="#93ffed" d="m352.09448 167.05511l0 0c0 -15.629227 12.669983 -28.29921 28.299225 -28.29921l0 0c7.5054016 0 14.70343 2.9815216 20.01056 8.2886505c5.307129 5.307129 8.288635 12.505142 8.288635 20.01056l0 0c0 15.629227 -12.669983 28.29921 -28.299194 28.29921l0 0c-15.629242 0 -28.299225 -12.669983 -28.299225 -28.29921z" fill-rule="evenodd"/><path fill="#ffc490" d="m352.09448 242.18636l0 0c0 -15.629227 12.669983 -28.29921 28.299225 -28.29921l0 0c7.5054016 0 14.70343 2.9815063 20.01056 8.288635c5.307129 5.307144 8.288635 12.505157 8.288635 20.010574l0 0c0 15.629227 -12.669983 28.29921 -28.299194 28.29921l0 0c-15.629242 0 -28.299225 -12.669983 -28.299225 -28.29921z" fill-rule="evenodd"/><path fill="#ff7a7a" d="m276.7139 167.05511l0 0c0 -15.629227 12.670013 -28.29921 28.299225 -28.29921l0 0c7.505432 0 14.70343 2.9815216 20.01056 8.2886505c5.307129 5.307129 8.288666 12.505142 8.288666 20.01056l0 0c0 15.629227 -12.670013 28.29921 -28.299225 28.29921l0 0c-15.629211 0 -28.299225 -12.669983 -28.299225 -28.29921z" fill-rule="evenodd"/><path fill="#b7d2ff" d="m201.33333 167.05511l0 0c0 -15.629227 12.669998 -28.29921 28.299225 -28.29921l0 0c7.505417 0 14.70343 2.9815216 20.01056 8.2886505c5.307129 5.307129 8.2886505 12.505142 8.2886505 20.01056l0 0c0 15.629227 -12.669998 28.29921 -28.29921 28.29921l0 0c-15.629227 0 -28.299225 -12.669983 -28.299225 -28.29921z" fill-rule="evenodd"/><path fill="#ff7a7a" d="m201.33333 242.18636l0 0c0 -15.629227 12.669998 -28.29921 28.299225 -28.29921l0 0c7.505417 0 14.70343 2.9815063 20.01056 8.288635c5.307129 5.307144 8.2886505 12.505157 8.2886505 20.010574l0 0c0 15.629227 -12.669998 28.29921 -28.29921 28.29921l0 0c-15.629227 0 -28.299225 -12.669983 -28.299225 -28.29921z" fill-rule="evenodd"/><path fill="#ffb1fb" d="m276.7139 242.18636l0 0c0 -15.629227 12.670013 -28.29921 28.299225 -28.29921l0 0c7.505432 0 14.70343 2.9815063 20.01056 8.288635c5.307129 5.307144 8.288666 12.505157 8.288666 20.010574l0 0c0 15.629227 -12.670013 28.29921 -28.299225 28.29921l0 0c-15.629211 0 -28.299225 -12.669983 -28.299225 -28.29921z" fill-rule="evenodd"/><path fill="#ffb1fb" d="m427.47507 242.18636l0 0c0 -15.629227 12.669983 -28.29921 28.299225 -28.29921l0 0c7.5054016 0 14.70343 2.9815063 20.01056 8.288635c5.307129 5.307144 8.288635 12.505157 8.288635 20.010574l0 0c0 15.629227 -12.669983 28.29921 -28.299194 28.29921l0 0c-15.629242 0 -28.299225 -12.669983 -28.299225 -28.29921z" fill-rule="evenodd"/><path fill="#93ffed" d="m201.33333 317.3176l0 0c0 -15.629242 12.669998 -28.299225 28.299225 -28.299225l0 0c7.505417 0 14.70343 2.9815063 20.01056 8.288635c5.307129 5.3071594 8.2886505 12.505157 8.2886505 20.01059l0 0c0 15.629211 -12.669998 28.299194 -28.29921 28.299194l0 0c-15.629227 0 -28.299225 -12.669983 -28.299225 -28.299194z" fill-rule="evenodd"/><path fill="#ffc490" d="m276.7139 317.3176l0 0c0 -15.629242 12.670013 -28.299225 28.299225 -28.299225l0 0c7.505432 0 14.70343 2.9815063 20.01056 8.288635c5.307129 5.3071594 8.288666 12.505157 8.288666 20.01059l0 0c0 15.629211 -12.670013 28.299194 -28.299225 28.299194l0 0c-15.629211 0 -28.299225 -12.669983 -28.299225 -28.299194z" fill-rule="evenodd"/><path fill="#b7d2ff" d="m352.09448 317.3176l0 0c0 -15.629242 12.669983 -28.299225 28.299225 -28.299225l0 0c7.5054016 0 14.70343 2.9815063 20.01056 8.288635c5.307129 5.3071594 8.288635 12.505157 8.288635 20.01059l0 0c0 15.629211 -12.669983 28.299194 -28.299194 28.299194l0 0c-15.629242 0 -28.299225 -12.669983 -28.299225 -28.299194z" fill-rule="evenodd"/><path fill="#c4ff8c" d="m427.47507 317.3176l0 0c0 -15.629242 12.669983 -28.299225 28.299225 -28.299225l0 0c7.5054016 0 14.70343 2.9815063 20.01056 8.288635c5.307129 5.3071594 8.288635 12.505157 8.288635 20.01059l0 0c0 15.629211 -12.669983 28.299194 -28.299194 28.299194l0 0c-15.629242 0 -28.299225 -12.669983 -28.299225 -28.299194z" fill-rule="evenodd"/><path fill="#000000" fill-opacity="0.0" d="m0.15485564 365.90814l685.8583 0l0 135.74802l-685.8583 0z" fill-rule="evenodd"/><path fill="#6f4c3e" d="m122.373726 399.67752l0 67.390625l-16.40625 0l0 -40.421875l-15.078125 40.421875l-13.25 0l-15.15625 -40.515625l0 40.515625l-16.421875 0l0 -67.390625l19.390625 0l18.90625 46.65625l18.71875 -46.65625l19.296875 0zm8.549843 40.515625q0 -8.265625 3.109375 -14.5q3.125 -6.234375 8.5 -9.59375q5.390625 -3.375 12.0 -3.375q5.671875 0 9.9375 2.3125q4.28125 2.296875 6.578125 6.046875l0 -7.578125l16.421875 0l0 53.5625l-16.421875 0l0 -7.578125q-2.390625 3.734375 -6.671875 6.046875q-4.265625 2.296875 -9.9375 2.296875q-6.515625 0 -11.90625 -3.40625q-5.375 -3.40625 -8.5 -9.6875q-3.109375 -6.296875 -3.109375 -14.546875zm40.125 0.09375q0 -6.140625 -3.40625 -9.6875q-3.40625 -3.5625 -8.296875 -3.5625q-4.90625 0 -8.3125 3.5q-3.40625 3.5 -3.40625 9.65625q0 6.140625 3.40625 9.75q3.40625 3.59375 8.3125 3.59375q4.890625 0 8.296875 -3.546875q3.40625 -3.5625 3.40625 -9.703125zm50.121475 27.546875q-7.015625 0 -12.484375 -2.390625q-5.46875 -2.40625 -8.640625 -6.578125q-3.171875 -4.1875 -3.546875 -9.359375l16.21875 0q0.28125 2.78125 2.578125 4.515625q2.3125 1.71875 5.671875 1.71875q3.078125 0 4.75 -1.203125q1.6875 -1.203125 1.6875 -3.109375q0 -2.3125 -2.40625 -3.40625q-2.390625 -1.109375 -7.765625 -2.453125q-5.765625 -1.34375 -9.609375 -2.828125q-3.828125 -1.5 -6.625 -4.703125q-2.78125 -3.21875 -2.78125 -8.703125q0 -4.609375 2.546875 -8.390625q2.546875 -3.796875 7.484375 -6.0q4.953125 -2.21875 11.765625 -2.21875q10.078125 0 15.875 5.0q5.8125 4.984375 6.6875 13.25l-15.171875 0q-0.390625 -2.78125 -2.453125 -4.40625q-2.0625 -1.640625 -5.421875 -1.640625q-2.875 0 -4.421875 1.109375q-1.53125 1.09375 -1.53125 3.015625q0 2.296875 2.453125 3.453125q2.453125 1.15625 7.625 2.3125q5.953125 1.53125 9.703125 3.015625q3.75 1.484375 6.578125 4.796875q2.828125 3.3125 2.921875 8.890625q0 4.703125 -2.640625 8.40625q-2.640625 3.6875 -7.59375 5.796875q-4.9375 2.109375 -11.453125 2.109375zm61.630463 -14.6875l0 13.921875l-8.359375 0q-8.921875 0 -13.921875 -4.359375q-4.9843597 -4.375 -4.9843597 -14.265625l0 -21.3125l-6.53125 0l0 -13.625l6.53125 0l0 -13.0625l16.406235 0l0 13.0625l10.765625 0l0 13.625l-10.765625 0l0 21.5q0 2.40625 1.15625 3.46875q1.15625 1.046875 3.84375 1.046875l5.859375 0zm59.616608 -13.71875q0 2.296875 -0.296875 4.796875l-37.140625 0q0.375 4.984375 3.203125 7.625q2.84375 2.640625 6.96875 2.640625q6.140625 0 8.546875 -5.1875l17.46875 0q-1.34375 5.28125 -4.859375 9.515625q-3.5 4.21875 -8.78125 6.625q-5.28125 2.390625 -11.796875 2.390625q-7.875 0 -14.03125 -3.359375q-6.140625 -3.359375 -9.59375 -9.59375q-3.453125 -6.25 -3.453125 -14.59375q0 -8.359375 3.40625 -14.59375q3.40625 -6.234375 9.546875 -9.59375q6.15625 -3.375 14.125 -3.375q7.765625 0 13.8125 3.265625q6.046875 3.265625 9.453125 9.3125q3.421875 6.046875 3.421875 14.125zm-16.8125 -4.328125q0 -4.21875 -2.875 -6.71875q-2.875 -2.5 -7.203125 -2.5q-4.125 0 -6.953125 2.40625q-2.828125 2.390625 -3.5 6.8125l20.53125 0zm41.87036 -12.671875q2.875 -4.421875 7.1875 -6.953125q4.328125 -2.546875 9.609375 -2.546875l0 17.375l-4.515625 0q-6.140625 0 -9.21875 2.640625q-3.0625 2.640625 -3.0625 9.265625l0 24.859375l-16.421875 0l0 -53.5625l16.421875 0l0 8.921875zm93.00986 -9.5q9.984375 0 15.890625 6.046875q5.90625 6.046875 5.90625 16.796875l0 31.296875l-16.3125 0l0 -29.09375q0 -5.171875 -2.75 -8.0q-2.734375 -2.84375 -7.53125 -2.84375q-4.796875 0 -7.53125 2.84375q-2.734375 2.828125 -2.734375 8.0l0 29.09375l-16.328125 0l0 -29.09375q0 -5.171875 -2.734375 -8.0q-2.734375 -2.84375 -7.53125 -2.84375q-4.796875 0 -7.53125 2.84375q-2.734375 2.828125 -2.734375 8.0l0 29.09375l-16.421875 0l0 -53.5625l16.421875 0l0 6.71875q2.484375 -3.359375 6.515625 -5.328125q4.03125 -1.96875 9.125 -1.96875q6.046875 0 10.796875 2.59375q4.75 2.59375 7.4375 7.390625q2.796875 -4.421875 7.59375 -7.203125q4.796875 -2.78125 10.453125 -2.78125zm41.57022 -5.0q-4.3125 0 -7.046875 -2.53125q-2.734375 -2.546875 -2.734375 -6.296875q0 -3.84375 2.734375 -6.375q2.734375 -2.546875 7.046875 -2.546875q4.234375 0 6.96875 2.546875q2.734375 2.53125 2.734375 6.375q0 3.75 -2.734375 6.296875q-2.734375 2.53125 -6.96875 2.53125zm8.171875 5.578125l0 53.5625l-16.421875 0l0 -53.5625l16.421875 0zm44.538757 -0.578125q9.40625 0 15.015625 6.09375q5.625 6.09375 5.625 16.75l0 31.296875l-16.328125 0l0 -29.09375q0 -5.375 -2.78125 -8.34375q-2.78125 -2.984375 -7.484375 -2.984375q-4.703125 0 -7.484375 2.984375q-2.78125 2.96875 -2.78125 8.34375l0 29.09375l-16.421875 0l0 -53.5625l16.421875 0l0 7.09375q2.484375 -3.546875 6.703125 -5.609375q4.234375 -2.0625 9.515625 -2.0625zm28.79773 27.265625q0 -8.265625 3.109375 -14.5q3.125 -6.234375 8.5 -9.59375q5.390625 -3.375 12.0 -3.375q5.28125 0 9.640625 2.21875q4.375 2.203125 6.875 5.953125l0 -24.875l16.421875 0l0 71.046875l-16.421875 0l0 -7.6875q-2.296875 3.84375 -6.578125 6.15625q-4.265625 2.296875 -9.9375 2.296875q-6.609375 0 -12.0 -3.40625q-5.375 -3.40625 -8.5 -9.6875q-3.109375 -6.296875 -3.109375 -14.546875zm40.125 0.09375q0 -6.140625 -3.40625 -9.6875q-3.40625 -3.5625 -8.296875 -3.5625q-4.90625 0 -8.3125 3.5q-3.40625 3.5 -3.40625 9.65625q0 6.140625 3.40625 9.75q3.40625 3.59375 8.3125 3.59375q4.890625 0 8.296875 -3.546875q3.40625 -3.5625 3.40625 -9.703125z" fill-rule="nonzero"/></g></svg>